<?xml version="1.0" encoding="utf-8"?>


<!-- The icon can be used freely in both personal and commercial projects with no attribution required, but always appreciated. 
You may NOT sub-license, resell, rent, redistribute or otherwise transfer the icon without express written permission from iconmonstr.com -->


<!DOCTYPE svg PUBLIC "-//W3C//DTD SVG 1.1//EN" "http://www.w3.org/Graphics/SVG/1.1/DTD/svg11.dtd">

<svg version="1.1" xmlns="http://www.w3.org/2000/svg" xmlns:xlink="http://www.w3.org/1999/xlink" x="0px" y="0px"

	 width="512px" height="512px" viewBox="0 0 512 512" enable-background="new 0 0 512 512" xml:space="preserve">

<path id="last-fm-circle-icon" d="M256.417,50c-113.771,0-206,92.229-206,206s92.229,206,206,206s206-92.229,206-206

	S370.188,50,256.417,50z M324.352,328.1c-51.436,0-69.275-23.19-78.787-52.029l-9.514-29.732

	c-7.137-21.705-15.463-38.652-41.625-38.652c-18.139,0-36.572,13.082-36.572,49.651c0,28.543,14.568,46.383,35.086,46.383

	c23.188,0,38.65-17.246,38.65-17.246l9.516,25.867c0,0-16.059,15.756-49.652,15.756c-41.625,0-64.816-24.377-64.816-69.572

	c0-46.975,23.191-74.625,66.896-74.625c39.543,0,59.467,14.271,71.951,52.923l9.812,29.729c7.137,21.707,19.623,37.463,49.65,37.463

	c20.219,0,30.92-4.459,30.92-15.459c0-8.623-5.051-14.866-20.215-18.436l-20.219-4.756c-24.676-5.945-34.488-18.73-34.488-38.948

	c0-32.409,26.164-42.517,52.924-42.517c30.326,0,48.76,11,51.137,37.758l-29.73,3.569c-1.191-12.785-8.92-18.138-23.191-18.138

	c-13.084,0-21.111,5.948-21.111,16.057c0,8.918,3.867,14.271,16.947,17.244l19.027,4.162c25.57,5.947,39.25,18.435,39.25,42.517

	C386.197,316.803,361.223,328.1,324.352,328.1z"/>

</svg>

