<?xml version="1.0" encoding="utf-8"?>
<!-- Generator: Adobe Illustrator 17.0.0, SVG Export Plug-In . SVG Version: 6.00 Build 0)  -->
<!DOCTYPE svg PUBLIC "-//W3C//DTD SVG 1.1//EN" "http://www.w3.org/Graphics/SVG/1.1/DTD/svg11.dtd">
<svg version="1.1" id="Layer_1" xmlns="http://www.w3.org/2000/svg" xmlns:xlink="http://www.w3.org/1999/xlink" x="0px" y="0px"
	 width="596.595px" height="792.031px" viewBox="7.731 0 596.595 792.031" enable-background="new 7.731 0 596.595 792.031"
	 xml:space="preserve">
<g id="Layer_1_1_">
	<rect x="7.731" fill="#EEECE5" width="596.538" height="792"/>
	<rect x="107.863" y="64.468" fill="#343535" width="397.783" height="664.847"/>
	<rect x="118.15" y="75.716" fill="#5163C7" width="377.208" height="374.465"/>
	<rect x="118.15" y="454.021" display="none" fill="#C5C2B5" width="377.208" height="264.732"/>
	<g>
		
			<rect x="118.15" y="454.021" fill="#C5C2B5" stroke="#353536" stroke-width="0.5" stroke-miterlimit="10" width="377.208" height="264.732"/>
		
			<line fill="none" stroke="#353536" stroke-width="0.5" stroke-miterlimit="10" x1="118.15" y1="715.324" x2="495.359" y2="715.324"/>
		
			<line fill="none" stroke="#353536" stroke-width="0.5" stroke-miterlimit="10" x1="118.15" y1="711.758" x2="495.359" y2="711.758"/>
		
			<line fill="none" stroke="#353536" stroke-width="0.5" stroke-miterlimit="10" x1="118.15" y1="708.328" x2="495.359" y2="708.328"/>
		
			<line fill="none" stroke="#353536" stroke-width="0.5" stroke-miterlimit="10" x1="118.15" y1="704.762" x2="495.359" y2="704.762"/>
		
			<line fill="none" stroke="#353536" stroke-width="0.5" stroke-miterlimit="10" x1="118.15" y1="701.333" x2="495.359" y2="701.333"/>
		
			<line fill="none" stroke="#353536" stroke-width="0.5" stroke-miterlimit="10" x1="118.15" y1="697.904" x2="495.359" y2="697.904"/>
		
			<line fill="none" stroke="#353536" stroke-width="0.5" stroke-miterlimit="10" x1="118.15" y1="694.337" x2="495.359" y2="694.337"/>
		
			<line fill="none" stroke="#353536" stroke-width="0.5" stroke-miterlimit="10" x1="118.15" y1="690.908" x2="495.359" y2="690.908"/>
		
			<line fill="none" stroke="#353536" stroke-width="0.5" stroke-miterlimit="10" x1="118.15" y1="687.342" x2="495.359" y2="687.342"/>
		
			<line fill="none" stroke="#353536" stroke-width="0.5" stroke-miterlimit="10" x1="118.15" y1="683.913" x2="495.359" y2="683.913"/>
		
			<line fill="none" stroke="#353536" stroke-width="0.5" stroke-miterlimit="10" x1="118.15" y1="680.484" x2="495.359" y2="680.484"/>
		
			<line fill="none" stroke="#353536" stroke-width="0.5" stroke-miterlimit="10" x1="118.15" y1="676.917" x2="495.359" y2="676.917"/>
		
			<line fill="none" stroke="#353536" stroke-width="0.5" stroke-miterlimit="10" x1="118.15" y1="673.488" x2="495.359" y2="673.488"/>
		
			<line fill="none" stroke="#353536" stroke-width="0.5" stroke-miterlimit="10" x1="118.15" y1="669.922" x2="495.359" y2="669.922"/>
		
			<line fill="none" stroke="#353536" stroke-width="0.5" stroke-miterlimit="10" x1="118.15" y1="666.493" x2="495.359" y2="666.493"/>
		
			<line fill="none" stroke="#353536" stroke-width="0.5" stroke-miterlimit="10" x1="118.15" y1="663.063" x2="495.359" y2="663.063"/>
		
			<line fill="none" stroke="#353536" stroke-width="0.5" stroke-miterlimit="10" x1="118.15" y1="659.497" x2="495.359" y2="659.497"/>
		
			<line fill="none" stroke="#353536" stroke-width="0.5" stroke-miterlimit="10" x1="118.15" y1="656.068" x2="495.359" y2="656.068"/>
		
			<line fill="none" stroke="#353536" stroke-width="0.5" stroke-miterlimit="10" x1="118.15" y1="652.639" x2="495.359" y2="652.639"/>
		
			<line fill="none" stroke="#353536" stroke-width="0.5" stroke-miterlimit="10" x1="118.15" y1="649.072" x2="495.359" y2="649.072"/>
		
			<line fill="none" stroke="#353536" stroke-width="0.5" stroke-miterlimit="10" x1="118.15" y1="645.643" x2="495.359" y2="645.643"/>
		
			<line fill="none" stroke="#353536" stroke-width="0.5" stroke-miterlimit="10" x1="118.15" y1="642.077" x2="495.359" y2="642.077"/>
		
			<line fill="none" stroke="#353536" stroke-width="0.5" stroke-miterlimit="10" x1="118.15" y1="638.648" x2="495.359" y2="638.648"/>
		
			<line fill="none" stroke="#353536" stroke-width="0.5" stroke-miterlimit="10" x1="118.15" y1="635.219" x2="495.359" y2="635.219"/>
		
			<line fill="none" stroke="#353536" stroke-width="0.5" stroke-miterlimit="10" x1="118.15" y1="631.652" x2="495.359" y2="631.652"/>
		
			<line fill="none" stroke="#353536" stroke-width="0.5" stroke-miterlimit="10" x1="118.15" y1="628.223" x2="495.359" y2="628.223"/>
		
			<line fill="none" stroke="#353536" stroke-width="0.5" stroke-miterlimit="10" x1="118.15" y1="624.657" x2="495.359" y2="624.657"/>
		
			<line fill="none" stroke="#353536" stroke-width="0.5" stroke-miterlimit="10" x1="118.15" y1="621.228" x2="495.359" y2="621.228"/>
		
			<line fill="none" stroke="#353536" stroke-width="0.5" stroke-miterlimit="10" x1="118.15" y1="617.798" x2="495.359" y2="617.798"/>
		
			<line fill="none" stroke="#353536" stroke-width="0.5" stroke-miterlimit="10" x1="118.15" y1="614.232" x2="495.359" y2="614.232"/>
		
			<line fill="none" stroke="#353536" stroke-width="0.5" stroke-miterlimit="10" x1="118.15" y1="610.803" x2="495.359" y2="610.803"/>
		
			<line fill="none" stroke="#353536" stroke-width="0.5" stroke-miterlimit="10" x1="118.15" y1="607.237" x2="495.359" y2="607.237"/>
		
			<line fill="none" stroke="#353536" stroke-width="0.5" stroke-miterlimit="10" x1="118.15" y1="603.807" x2="495.359" y2="603.807"/>
		
			<line fill="none" stroke="#353536" stroke-width="0.5" stroke-miterlimit="10" x1="118.15" y1="600.378" x2="495.359" y2="600.378"/>
		
			<line fill="none" stroke="#353536" stroke-width="0.5" stroke-miterlimit="10" x1="118.15" y1="596.812" x2="495.359" y2="596.812"/>
		
			<line fill="none" stroke="#353536" stroke-width="0.5" stroke-miterlimit="10" x1="118.15" y1="593.383" x2="495.359" y2="593.383"/>
		
			<line fill="none" stroke="#353536" stroke-width="0.5" stroke-miterlimit="10" x1="118.15" y1="589.816" x2="495.359" y2="589.816"/>
		
			<line fill="none" stroke="#353536" stroke-width="0.5" stroke-miterlimit="10" x1="118.15" y1="586.387" x2="495.359" y2="586.387"/>
		
			<line fill="none" stroke="#353536" stroke-width="0.5" stroke-miterlimit="10" x1="118.15" y1="582.958" x2="495.359" y2="582.958"/>
		
			<line fill="none" stroke="#353536" stroke-width="0.5" stroke-miterlimit="10" x1="118.15" y1="579.392" x2="495.359" y2="579.392"/>
		
			<line fill="none" stroke="#353536" stroke-width="0.5" stroke-miterlimit="10" x1="118.15" y1="575.963" x2="495.359" y2="575.963"/>
		
			<line fill="none" stroke="#353536" stroke-width="0.5" stroke-miterlimit="10" x1="118.15" y1="572.396" x2="495.359" y2="572.396"/>
		
			<line fill="none" stroke="#353536" stroke-width="0.5" stroke-miterlimit="10" x1="118.15" y1="568.967" x2="495.359" y2="568.967"/>
		
			<line fill="none" stroke="#353536" stroke-width="0.5" stroke-miterlimit="10" x1="118.15" y1="565.538" x2="495.359" y2="565.538"/>
		
			<line fill="none" stroke="#353536" stroke-width="0.5" stroke-miterlimit="10" x1="118.15" y1="561.972" x2="495.359" y2="561.972"/>
		
			<line fill="none" stroke="#353536" stroke-width="0.5" stroke-miterlimit="10" x1="118.15" y1="558.542" x2="495.359" y2="558.542"/>
		
			<line fill="none" stroke="#353536" stroke-width="0.5" stroke-miterlimit="10" x1="118.15" y1="554.976" x2="495.359" y2="554.976"/>
		
			<line fill="none" stroke="#353536" stroke-width="0.5" stroke-miterlimit="10" x1="118.15" y1="551.547" x2="495.359" y2="551.547"/>
		
			<line fill="none" stroke="#353536" stroke-width="0.5" stroke-miterlimit="10" x1="118.15" y1="548.118" x2="495.359" y2="548.118"/>
		
			<line fill="none" stroke="#353536" stroke-width="0.5" stroke-miterlimit="10" x1="118.15" y1="544.551" x2="495.359" y2="544.551"/>
		
			<line fill="none" stroke="#353536" stroke-width="0.5" stroke-miterlimit="10" x1="118.15" y1="541.122" x2="495.359" y2="541.122"/>
		
			<line fill="none" stroke="#353536" stroke-width="0.5" stroke-miterlimit="10" x1="118.15" y1="537.556" x2="495.359" y2="537.556"/>
		
			<line fill="none" stroke="#353536" stroke-width="0.5" stroke-miterlimit="10" x1="118.15" y1="534.127" x2="495.359" y2="534.127"/>
		
			<line fill="none" stroke="#353536" stroke-width="0.5" stroke-miterlimit="10" x1="118.15" y1="530.698" x2="495.359" y2="530.698"/>
		
			<line fill="none" stroke="#353536" stroke-width="0.5" stroke-miterlimit="10" x1="118.15" y1="527.131" x2="495.359" y2="527.131"/>
		
			<line fill="none" stroke="#353536" stroke-width="0.5" stroke-miterlimit="10" x1="118.15" y1="523.702" x2="495.359" y2="523.702"/>
		
			<line fill="none" stroke="#353536" stroke-width="0.5" stroke-miterlimit="10" x1="118.15" y1="520.273" x2="495.359" y2="520.273"/>
		
			<line fill="none" stroke="#353536" stroke-width="0.5" stroke-miterlimit="10" x1="118.15" y1="516.707" x2="495.359" y2="516.707"/>
		
			<line fill="none" stroke="#353536" stroke-width="0.5" stroke-miterlimit="10" x1="118.15" y1="513.277" x2="495.359" y2="513.277"/>
		
			<line fill="none" stroke="#353536" stroke-width="0.5" stroke-miterlimit="10" x1="118.15" y1="509.711" x2="495.359" y2="509.711"/>
		
			<line fill="none" stroke="#353536" stroke-width="0.5" stroke-miterlimit="10" x1="118.15" y1="506.282" x2="495.359" y2="506.282"/>
		
			<line fill="none" stroke="#353536" stroke-width="0.5" stroke-miterlimit="10" x1="118.15" y1="502.853" x2="495.359" y2="502.853"/>
		
			<line fill="none" stroke="#353536" stroke-width="0.5" stroke-miterlimit="10" x1="118.15" y1="499.286" x2="495.359" y2="499.286"/>
		
			<line fill="none" stroke="#353536" stroke-width="0.5" stroke-miterlimit="10" x1="118.15" y1="495.857" x2="495.359" y2="495.857"/>
		
			<line fill="none" stroke="#353536" stroke-width="0.5" stroke-miterlimit="10" x1="118.15" y1="492.291" x2="495.359" y2="492.291"/>
		
			<line fill="none" stroke="#353536" stroke-width="0.5" stroke-miterlimit="10" x1="118.15" y1="488.862" x2="495.359" y2="488.862"/>
		
			<line fill="none" stroke="#353536" stroke-width="0.5" stroke-miterlimit="10" x1="118.15" y1="485.433" x2="495.359" y2="485.433"/>
		
			<line fill="none" stroke="#353536" stroke-width="0.5" stroke-miterlimit="10" x1="118.15" y1="481.866" x2="495.359" y2="481.866"/>
		
			<line fill="none" stroke="#353536" stroke-width="0.5" stroke-miterlimit="10" x1="118.15" y1="478.437" x2="495.359" y2="478.437"/>
		
			<line fill="none" stroke="#353536" stroke-width="0.5" stroke-miterlimit="10" x1="118.15" y1="474.871" x2="495.359" y2="474.871"/>
		
			<line fill="none" stroke="#353536" stroke-width="0.5" stroke-miterlimit="10" x1="118.15" y1="471.442" x2="495.359" y2="471.442"/>
		
			<line fill="none" stroke="#353536" stroke-width="0.5" stroke-miterlimit="10" x1="118.15" y1="468.012" x2="495.359" y2="468.012"/>
		
			<line fill="none" stroke="#353536" stroke-width="0.5" stroke-miterlimit="10" x1="118.15" y1="464.446" x2="495.359" y2="464.446"/>
		
			<line fill="none" stroke="#353536" stroke-width="0.5" stroke-miterlimit="10" x1="118.15" y1="461.017" x2="495.359" y2="461.017"/>
		
			<line fill="none" stroke="#353536" stroke-width="0.5" stroke-miterlimit="10" x1="118.15" y1="457.451" x2="495.359" y2="457.451"/>
	</g>
	<g display="none">
		
			<rect x="118.15" y="454.021" display="inline" fill="#C5C2B5" stroke="#353536" stroke-width="0.5" stroke-miterlimit="10" width="377.208" height="264.732"/>
		
			<line display="inline" fill="none" stroke="#353536" stroke-width="0.5" stroke-miterlimit="10" x1="118.15" y1="717.381" x2="495.359" y2="717.381"/>
		
			<line display="inline" fill="none" stroke="#353536" stroke-width="0.5" stroke-miterlimit="10" x1="118.15" y1="716.147" x2="495.359" y2="716.147"/>
		
			<line display="inline" fill="none" stroke="#353536" stroke-width="0.5" stroke-miterlimit="10" x1="118.15" y1="714.775" x2="495.359" y2="714.775"/>
		
			<line display="inline" fill="none" stroke="#353536" stroke-width="0.5" stroke-miterlimit="10" x1="118.15" y1="713.541" x2="495.359" y2="713.541"/>
		
			<line display="inline" fill="none" stroke="#353536" stroke-width="0.5" stroke-miterlimit="10" x1="118.15" y1="712.169" x2="495.359" y2="712.169"/>
		
			<line display="inline" fill="none" stroke="#353536" stroke-width="0.5" stroke-miterlimit="10" x1="118.15" y1="710.797" x2="495.359" y2="710.797"/>
		
			<line display="inline" fill="none" stroke="#353536" stroke-width="0.5" stroke-miterlimit="10" x1="118.15" y1="709.563" x2="495.359" y2="709.563"/>
		
			<line display="inline" fill="none" stroke="#353536" stroke-width="0.5" stroke-miterlimit="10" x1="118.15" y1="708.191" x2="495.359" y2="708.191"/>
		
			<line display="inline" fill="none" stroke="#353536" stroke-width="0.5" stroke-miterlimit="10" x1="118.15" y1="706.957" x2="495.359" y2="706.957"/>
		
			<line display="inline" fill="none" stroke="#353536" stroke-width="0.5" stroke-miterlimit="10" x1="118.15" y1="705.585" x2="495.359" y2="705.585"/>
		
			<line display="inline" fill="none" stroke="#353536" stroke-width="0.5" stroke-miterlimit="10" x1="118.15" y1="704.213" x2="495.359" y2="704.213"/>
		
			<line display="inline" fill="none" stroke="#353536" stroke-width="0.5" stroke-miterlimit="10" x1="118.15" y1="702.979" x2="495.359" y2="702.979"/>
		
			<line display="inline" fill="none" stroke="#353536" stroke-width="0.5" stroke-miterlimit="10" x1="118.15" y1="701.607" x2="495.359" y2="701.607"/>
		
			<line display="inline" fill="none" stroke="#353536" stroke-width="0.5" stroke-miterlimit="10" x1="118.15" y1="700.373" x2="495.359" y2="700.373"/>
		
			<line display="inline" fill="none" stroke="#353536" stroke-width="0.5" stroke-miterlimit="10" x1="118.15" y1="699.001" x2="495.359" y2="699.001"/>
		
			<line display="inline" fill="none" stroke="#353536" stroke-width="0.5" stroke-miterlimit="10" x1="118.15" y1="697.629" x2="495.359" y2="697.629"/>
		
			<line display="inline" fill="none" stroke="#353536" stroke-width="0.5" stroke-miterlimit="10" x1="118.15" y1="696.395" x2="495.359" y2="696.395"/>
		
			<line display="inline" fill="none" stroke="#353536" stroke-width="0.5" stroke-miterlimit="10" x1="118.15" y1="695.023" x2="495.359" y2="695.023"/>
		
			<line display="inline" fill="none" stroke="#353536" stroke-width="0.5" stroke-miterlimit="10" x1="118.15" y1="693.789" x2="495.359" y2="693.789"/>
		
			<line display="inline" fill="none" stroke="#353536" stroke-width="0.5" stroke-miterlimit="10" x1="118.15" y1="692.417" x2="495.359" y2="692.417"/>
		
			<line display="inline" fill="none" stroke="#353536" stroke-width="0.5" stroke-miterlimit="10" x1="118.15" y1="691.045" x2="495.359" y2="691.045"/>
		
			<line display="inline" fill="none" stroke="#353536" stroke-width="0.5" stroke-miterlimit="10" x1="118.15" y1="689.811" x2="495.359" y2="689.811"/>
		
			<line display="inline" fill="none" stroke="#353536" stroke-width="0.5" stroke-miterlimit="10" x1="118.15" y1="688.439" x2="495.359" y2="688.439"/>
		
			<line display="inline" fill="none" stroke="#353536" stroke-width="0.5" stroke-miterlimit="10" x1="118.15" y1="687.205" x2="495.359" y2="687.205"/>
		
			<line display="inline" fill="none" stroke="#353536" stroke-width="0.5" stroke-miterlimit="10" x1="118.15" y1="685.833" x2="495.359" y2="685.833"/>
		
			<line display="inline" fill="none" stroke="#353536" stroke-width="0.5" stroke-miterlimit="10" x1="118.15" y1="684.461" x2="495.359" y2="684.461"/>
		
			<line display="inline" fill="none" stroke="#353536" stroke-width="0.5" stroke-miterlimit="10" x1="118.15" y1="683.227" x2="495.359" y2="683.227"/>
		
			<line display="inline" fill="none" stroke="#353536" stroke-width="0.5" stroke-miterlimit="10" x1="118.15" y1="681.855" x2="495.359" y2="681.855"/>
		
			<line display="inline" fill="none" stroke="#353536" stroke-width="0.5" stroke-miterlimit="10" x1="118.15" y1="680.621" x2="495.359" y2="680.621"/>
		
			<line display="inline" fill="none" stroke="#353536" stroke-width="0.5" stroke-miterlimit="10" x1="118.15" y1="679.249" x2="495.359" y2="679.249"/>
		
			<line display="inline" fill="none" stroke="#353536" stroke-width="0.5" stroke-miterlimit="10" x1="118.15" y1="677.877" x2="495.359" y2="677.877"/>
		
			<line display="inline" fill="none" stroke="#353536" stroke-width="0.5" stroke-miterlimit="10" x1="118.15" y1="676.643" x2="495.359" y2="676.643"/>
		
			<line display="inline" fill="none" stroke="#353536" stroke-width="0.5" stroke-miterlimit="10" x1="118.15" y1="675.271" x2="495.359" y2="675.271"/>
		
			<line display="inline" fill="none" stroke="#353536" stroke-width="0.5" stroke-miterlimit="10" x1="118.15" y1="674.037" x2="495.359" y2="674.037"/>
		
			<line display="inline" fill="none" stroke="#353536" stroke-width="0.5" stroke-miterlimit="10" x1="118.15" y1="672.665" x2="495.359" y2="672.665"/>
		
			<line display="inline" fill="none" stroke="#353536" stroke-width="0.5" stroke-miterlimit="10" x1="118.15" y1="671.293" x2="495.359" y2="671.293"/>
		
			<line display="inline" fill="none" stroke="#353536" stroke-width="0.5" stroke-miterlimit="10" x1="118.15" y1="670.059" x2="495.359" y2="670.059"/>
		
			<line display="inline" fill="none" stroke="#353536" stroke-width="0.5" stroke-miterlimit="10" x1="118.15" y1="668.687" x2="495.359" y2="668.687"/>
		
			<line display="inline" fill="none" stroke="#353536" stroke-width="0.5" stroke-miterlimit="10" x1="118.15" y1="667.453" x2="495.359" y2="667.453"/>
		
			<line display="inline" fill="none" stroke="#353536" stroke-width="0.5" stroke-miterlimit="10" x1="118.15" y1="666.081" x2="495.359" y2="666.081"/>
		
			<line display="inline" fill="none" stroke="#353536" stroke-width="0.5" stroke-miterlimit="10" x1="118.15" y1="664.709" x2="495.359" y2="664.709"/>
		
			<line display="inline" fill="none" stroke="#353536" stroke-width="0.5" stroke-miterlimit="10" x1="118.15" y1="663.475" x2="495.359" y2="663.475"/>
		
			<line display="inline" fill="none" stroke="#353536" stroke-width="0.5" stroke-miterlimit="10" x1="118.15" y1="662.103" x2="495.359" y2="662.103"/>
		
			<line display="inline" fill="none" stroke="#353536" stroke-width="0.5" stroke-miterlimit="10" x1="118.15" y1="660.869" x2="495.359" y2="660.869"/>
		
			<line display="inline" fill="none" stroke="#353536" stroke-width="0.5" stroke-miterlimit="10" x1="118.15" y1="659.497" x2="495.359" y2="659.497"/>
		
			<line display="inline" fill="none" stroke="#353536" stroke-width="0.5" stroke-miterlimit="10" x1="118.15" y1="658.125" x2="495.359" y2="658.125"/>
		
			<line display="inline" fill="none" stroke="#353536" stroke-width="0.5" stroke-miterlimit="10" x1="118.15" y1="656.891" x2="495.359" y2="656.891"/>
		
			<line display="inline" fill="none" stroke="#353536" stroke-width="0.5" stroke-miterlimit="10" x1="118.15" y1="655.519" x2="495.359" y2="655.519"/>
		
			<line display="inline" fill="none" stroke="#353536" stroke-width="0.5" stroke-miterlimit="10" x1="118.15" y1="654.285" x2="495.359" y2="654.285"/>
		
			<line display="inline" fill="none" stroke="#353536" stroke-width="0.5" stroke-miterlimit="10" x1="118.15" y1="652.913" x2="495.359" y2="652.913"/>
		
			<line display="inline" fill="none" stroke="#353536" stroke-width="0.5" stroke-miterlimit="10" x1="118.15" y1="651.541" x2="495.359" y2="651.541"/>
		
			<line display="inline" fill="none" stroke="#353536" stroke-width="0.5" stroke-miterlimit="10" x1="118.15" y1="650.307" x2="495.359" y2="650.307"/>
		
			<line display="inline" fill="none" stroke="#353536" stroke-width="0.5" stroke-miterlimit="10" x1="118.15" y1="648.935" x2="495.359" y2="648.935"/>
		
			<line display="inline" fill="none" stroke="#353536" stroke-width="0.5" stroke-miterlimit="10" x1="118.15" y1="647.564" x2="495.359" y2="647.564"/>
		
			<line display="inline" fill="none" stroke="#353536" stroke-width="0.5" stroke-miterlimit="10" x1="118.15" y1="646.329" x2="495.359" y2="646.329"/>
		
			<line display="inline" fill="none" stroke="#353536" stroke-width="0.5" stroke-miterlimit="10" x1="118.15" y1="644.957" x2="495.359" y2="644.957"/>
		
			<line display="inline" fill="none" stroke="#353536" stroke-width="0.5" stroke-miterlimit="10" x1="118.15" y1="643.723" x2="495.359" y2="643.723"/>
		
			<line display="inline" fill="none" stroke="#353536" stroke-width="0.5" stroke-miterlimit="10" x1="118.15" y1="642.351" x2="495.359" y2="642.351"/>
		
			<line display="inline" fill="none" stroke="#353536" stroke-width="0.5" stroke-miterlimit="10" x1="118.15" y1="640.98" x2="495.359" y2="640.98"/>
		
			<line display="inline" fill="none" stroke="#353536" stroke-width="0.5" stroke-miterlimit="10" x1="118.15" y1="639.745" x2="495.359" y2="639.745"/>
		
			<line display="inline" fill="none" stroke="#353536" stroke-width="0.5" stroke-miterlimit="10" x1="118.15" y1="638.373" x2="495.359" y2="638.373"/>
		
			<line display="inline" fill="none" stroke="#353536" stroke-width="0.5" stroke-miterlimit="10" x1="118.15" y1="637.139" x2="495.359" y2="637.139"/>
		
			<line display="inline" fill="none" stroke="#353536" stroke-width="0.5" stroke-miterlimit="10" x1="118.15" y1="635.767" x2="495.359" y2="635.767"/>
		
			<line display="inline" fill="none" stroke="#353536" stroke-width="0.5" stroke-miterlimit="10" x1="118.15" y1="634.396" x2="495.359" y2="634.396"/>
		
			<line display="inline" fill="none" stroke="#353536" stroke-width="0.5" stroke-miterlimit="10" x1="118.15" y1="633.161" x2="495.359" y2="633.161"/>
		
			<line display="inline" fill="none" stroke="#353536" stroke-width="0.5" stroke-miterlimit="10" x1="118.15" y1="631.789" x2="495.359" y2="631.789"/>
		
			<line display="inline" fill="none" stroke="#353536" stroke-width="0.5" stroke-miterlimit="10" x1="118.15" y1="630.555" x2="495.359" y2="630.555"/>
		
			<line display="inline" fill="none" stroke="#353536" stroke-width="0.5" stroke-miterlimit="10" x1="118.15" y1="629.183" x2="495.359" y2="629.183"/>
		
			<line display="inline" fill="none" stroke="#353536" stroke-width="0.5" stroke-miterlimit="10" x1="118.15" y1="627.812" x2="495.359" y2="627.812"/>
		
			<line display="inline" fill="none" stroke="#353536" stroke-width="0.5" stroke-miterlimit="10" x1="118.15" y1="626.577" x2="495.359" y2="626.577"/>
		
			<line display="inline" fill="none" stroke="#353536" stroke-width="0.5" stroke-miterlimit="10" x1="118.15" y1="625.205" x2="495.359" y2="625.205"/>
		
			<line display="inline" fill="none" stroke="#353536" stroke-width="0.5" stroke-miterlimit="10" x1="118.15" y1="623.971" x2="495.359" y2="623.971"/>
		
			<line display="inline" fill="none" stroke="#353536" stroke-width="0.5" stroke-miterlimit="10" x1="118.15" y1="622.599" x2="495.359" y2="622.599"/>
		
			<line display="inline" fill="none" stroke="#353536" stroke-width="0.5" stroke-miterlimit="10" x1="118.15" y1="621.228" x2="495.359" y2="621.228"/>
		
			<line display="inline" fill="none" stroke="#353536" stroke-width="0.5" stroke-miterlimit="10" x1="118.15" y1="619.993" x2="495.359" y2="619.993"/>
		
			<line display="inline" fill="none" stroke="#353536" stroke-width="0.5" stroke-miterlimit="10" x1="118.15" y1="618.621" x2="495.359" y2="618.621"/>
		
			<line display="inline" fill="none" stroke="#353536" stroke-width="0.5" stroke-miterlimit="10" x1="118.15" y1="617.387" x2="495.359" y2="617.387"/>
		
			<line display="inline" fill="none" stroke="#353536" stroke-width="0.5" stroke-miterlimit="10" x1="118.15" y1="616.015" x2="495.359" y2="616.015"/>
		
			<line display="inline" fill="none" stroke="#353536" stroke-width="0.5" stroke-miterlimit="10" x1="118.15" y1="614.644" x2="495.359" y2="614.644"/>
		
			<line display="inline" fill="none" stroke="#353536" stroke-width="0.5" stroke-miterlimit="10" x1="118.15" y1="613.409" x2="495.359" y2="613.409"/>
		
			<line display="inline" fill="none" stroke="#353536" stroke-width="0.5" stroke-miterlimit="10" x1="118.15" y1="612.037" x2="495.359" y2="612.037"/>
		
			<line display="inline" fill="none" stroke="#353536" stroke-width="0.5" stroke-miterlimit="10" x1="118.15" y1="610.803" x2="495.359" y2="610.803"/>
		
			<line display="inline" fill="none" stroke="#353536" stroke-width="0.5" stroke-miterlimit="10" x1="118.15" y1="609.431" x2="495.359" y2="609.431"/>
		
			<line display="inline" fill="none" stroke="#353536" stroke-width="0.5" stroke-miterlimit="10" x1="118.15" y1="608.06" x2="495.359" y2="608.06"/>
		
			<line display="inline" fill="none" stroke="#353536" stroke-width="0.5" stroke-miterlimit="10" x1="118.15" y1="606.825" x2="495.359" y2="606.825"/>
		
			<line display="inline" fill="none" stroke="#353536" stroke-width="0.5" stroke-miterlimit="10" x1="118.15" y1="605.453" x2="495.359" y2="605.453"/>
		
			<line display="inline" fill="none" stroke="#353536" stroke-width="0.5" stroke-miterlimit="10" x1="118.15" y1="604.219" x2="495.359" y2="604.219"/>
		
			<line display="inline" fill="none" stroke="#353536" stroke-width="0.5" stroke-miterlimit="10" x1="118.15" y1="602.847" x2="495.359" y2="602.847"/>
		
			<line display="inline" fill="none" stroke="#353536" stroke-width="0.5" stroke-miterlimit="10" x1="118.15" y1="601.476" x2="495.359" y2="601.476"/>
		
			<line display="inline" fill="none" stroke="#353536" stroke-width="0.5" stroke-miterlimit="10" x1="118.15" y1="600.241" x2="495.359" y2="600.241"/>
		
			<line display="inline" fill="none" stroke="#353536" stroke-width="0.5" stroke-miterlimit="10" x1="118.15" y1="598.869" x2="495.359" y2="598.869"/>
		
			<line display="inline" fill="none" stroke="#353536" stroke-width="0.5" stroke-miterlimit="10" x1="118.15" y1="597.635" x2="495.359" y2="597.635"/>
		
			<line display="inline" fill="none" stroke="#353536" stroke-width="0.5" stroke-miterlimit="10" x1="118.15" y1="596.263" x2="495.359" y2="596.263"/>
		
			<line display="inline" fill="none" stroke="#353536" stroke-width="0.5" stroke-miterlimit="10" x1="118.15" y1="594.892" x2="495.359" y2="594.892"/>
		
			<line display="inline" fill="none" stroke="#353536" stroke-width="0.5" stroke-miterlimit="10" x1="118.15" y1="593.657" x2="495.359" y2="593.657"/>
		
			<line display="inline" fill="none" stroke="#353536" stroke-width="0.5" stroke-miterlimit="10" x1="118.15" y1="592.285" x2="495.359" y2="592.285"/>
		
			<line display="inline" fill="none" stroke="#353536" stroke-width="0.5" stroke-miterlimit="10" x1="118.15" y1="591.051" x2="495.359" y2="591.051"/>
		
			<line display="inline" fill="none" stroke="#353536" stroke-width="0.5" stroke-miterlimit="10" x1="118.15" y1="589.679" x2="495.359" y2="589.679"/>
		
			<line display="inline" fill="none" stroke="#353536" stroke-width="0.5" stroke-miterlimit="10" x1="118.15" y1="588.308" x2="495.359" y2="588.308"/>
		
			<line display="inline" fill="none" stroke="#353536" stroke-width="0.5" stroke-miterlimit="10" x1="118.15" y1="587.073" x2="495.359" y2="587.073"/>
		
			<line display="inline" fill="none" stroke="#353536" stroke-width="0.5" stroke-miterlimit="10" x1="118.15" y1="585.701" x2="495.359" y2="585.701"/>
		
			<line display="inline" fill="none" stroke="#353536" stroke-width="0.5" stroke-miterlimit="10" x1="118.15" y1="584.467" x2="495.359" y2="584.467"/>
		
			<line display="inline" fill="none" stroke="#353536" stroke-width="0.5" stroke-miterlimit="10" x1="118.15" y1="583.095" x2="495.359" y2="583.095"/>
		
			<line display="inline" fill="none" stroke="#353536" stroke-width="0.5" stroke-miterlimit="10" x1="118.15" y1="581.724" x2="495.359" y2="581.724"/>
		
			<line display="inline" fill="none" stroke="#353536" stroke-width="0.5" stroke-miterlimit="10" x1="118.15" y1="580.489" x2="495.359" y2="580.489"/>
		
			<line display="inline" fill="none" stroke="#353536" stroke-width="0.5" stroke-miterlimit="10" x1="118.15" y1="579.117" x2="495.359" y2="579.117"/>
		
			<line display="inline" fill="none" stroke="#353536" stroke-width="0.5" stroke-miterlimit="10" x1="118.15" y1="577.883" x2="495.359" y2="577.883"/>
		
			<line display="inline" fill="none" stroke="#353536" stroke-width="0.5" stroke-miterlimit="10" x1="118.15" y1="576.511" x2="495.359" y2="576.511"/>
		
			<line display="inline" fill="none" stroke="#353536" stroke-width="0.5" stroke-miterlimit="10" x1="118.15" y1="575.14" x2="495.359" y2="575.14"/>
		
			<line display="inline" fill="none" stroke="#353536" stroke-width="0.5" stroke-miterlimit="10" x1="118.15" y1="573.905" x2="495.359" y2="573.905"/>
		
			<line display="inline" fill="none" stroke="#353536" stroke-width="0.5" stroke-miterlimit="10" x1="118.15" y1="572.533" x2="495.359" y2="572.533"/>
		
			<line display="inline" fill="none" stroke="#353536" stroke-width="0.5" stroke-miterlimit="10" x1="118.15" y1="571.299" x2="495.359" y2="571.299"/>
		
			<line display="inline" fill="none" stroke="#353536" stroke-width="0.5" stroke-miterlimit="10" x1="118.15" y1="569.927" x2="495.359" y2="569.927"/>
		
			<line display="inline" fill="none" stroke="#353536" stroke-width="0.5" stroke-miterlimit="10" x1="118.15" y1="568.556" x2="495.359" y2="568.556"/>
		
			<line display="inline" fill="none" stroke="#353536" stroke-width="0.5" stroke-miterlimit="10" x1="118.15" y1="567.321" x2="495.359" y2="567.321"/>
		
			<line display="inline" fill="none" stroke="#353536" stroke-width="0.5" stroke-miterlimit="10" x1="118.15" y1="565.949" x2="495.359" y2="565.949"/>
		
			<line display="inline" fill="none" stroke="#353536" stroke-width="0.5" stroke-miterlimit="10" x1="118.15" y1="564.715" x2="495.359" y2="564.715"/>
		
			<line display="inline" fill="none" stroke="#353536" stroke-width="0.5" stroke-miterlimit="10" x1="118.15" y1="563.343" x2="495.359" y2="563.343"/>
		
			<line display="inline" fill="none" stroke="#353536" stroke-width="0.5" stroke-miterlimit="10" x1="118.15" y1="561.972" x2="495.359" y2="561.972"/>
		
			<line display="inline" fill="none" stroke="#353536" stroke-width="0.5" stroke-miterlimit="10" x1="118.15" y1="560.737" x2="495.359" y2="560.737"/>
		
			<line display="inline" fill="none" stroke="#353536" stroke-width="0.5" stroke-miterlimit="10" x1="118.15" y1="559.365" x2="495.359" y2="559.365"/>
		
			<line display="inline" fill="none" stroke="#353536" stroke-width="0.5" stroke-miterlimit="10" x1="118.15" y1="558.131" x2="495.359" y2="558.131"/>
		
			<line display="inline" fill="none" stroke="#353536" stroke-width="0.5" stroke-miterlimit="10" x1="118.15" y1="556.759" x2="495.359" y2="556.759"/>
		
			<line display="inline" fill="none" stroke="#353536" stroke-width="0.5" stroke-miterlimit="10" x1="118.15" y1="555.388" x2="495.359" y2="555.388"/>
		
			<line display="inline" fill="none" stroke="#353536" stroke-width="0.5" stroke-miterlimit="10" x1="118.15" y1="554.153" x2="495.359" y2="554.153"/>
		
			<line display="inline" fill="none" stroke="#353536" stroke-width="0.5" stroke-miterlimit="10" x1="118.15" y1="552.781" x2="495.359" y2="552.781"/>
		
			<line display="inline" fill="none" stroke="#353536" stroke-width="0.5" stroke-miterlimit="10" x1="118.15" y1="551.547" x2="495.359" y2="551.547"/>
		
			<line display="inline" fill="none" stroke="#353536" stroke-width="0.5" stroke-miterlimit="10" x1="118.15" y1="550.175" x2="495.359" y2="550.175"/>
		
			<line display="inline" fill="none" stroke="#353536" stroke-width="0.5" stroke-miterlimit="10" x1="118.15" y1="548.804" x2="495.359" y2="548.804"/>
		
			<line display="inline" fill="none" stroke="#353536" stroke-width="0.5" stroke-miterlimit="10" x1="118.15" y1="547.569" x2="495.359" y2="547.569"/>
		
			<line display="inline" fill="none" stroke="#353536" stroke-width="0.5" stroke-miterlimit="10" x1="118.15" y1="546.197" x2="495.359" y2="546.197"/>
		
			<line display="inline" fill="none" stroke="#353536" stroke-width="0.5" stroke-miterlimit="10" x1="118.15" y1="544.963" x2="495.359" y2="544.963"/>
		
			<line display="inline" fill="none" stroke="#353536" stroke-width="0.5" stroke-miterlimit="10" x1="118.15" y1="543.591" x2="495.359" y2="543.591"/>
		
			<line display="inline" fill="none" stroke="#353536" stroke-width="0.5" stroke-miterlimit="10" x1="118.15" y1="542.22" x2="495.359" y2="542.22"/>
		
			<line display="inline" fill="none" stroke="#353536" stroke-width="0.5" stroke-miterlimit="10" x1="118.15" y1="540.985" x2="495.359" y2="540.985"/>
		
			<line display="inline" fill="none" stroke="#353536" stroke-width="0.5" stroke-miterlimit="10" x1="118.15" y1="539.613" x2="495.359" y2="539.613"/>
		
			<line display="inline" fill="none" stroke="#353536" stroke-width="0.5" stroke-miterlimit="10" x1="118.15" y1="538.379" x2="495.359" y2="538.379"/>
		
			<line display="inline" fill="none" stroke="#353536" stroke-width="0.5" stroke-miterlimit="10" x1="118.15" y1="537.007" x2="495.359" y2="537.007"/>
		
			<line display="inline" fill="none" stroke="#353536" stroke-width="0.5" stroke-miterlimit="10" x1="118.15" y1="535.636" x2="495.359" y2="535.636"/>
		
			<line display="inline" fill="none" stroke="#353536" stroke-width="0.5" stroke-miterlimit="10" x1="118.15" y1="534.401" x2="495.359" y2="534.401"/>
		
			<line display="inline" fill="none" stroke="#353536" stroke-width="0.5" stroke-miterlimit="10" x1="118.15" y1="533.029" x2="495.359" y2="533.029"/>
		
			<line display="inline" fill="none" stroke="#353536" stroke-width="0.5" stroke-miterlimit="10" x1="118.15" y1="531.795" x2="495.359" y2="531.795"/>
		
			<line display="inline" fill="none" stroke="#353536" stroke-width="0.5" stroke-miterlimit="10" x1="118.15" y1="530.423" x2="495.359" y2="530.423"/>
		
			<line display="inline" fill="none" stroke="#353536" stroke-width="0.5" stroke-miterlimit="10" x1="118.15" y1="529.052" x2="495.359" y2="529.052"/>
		
			<line display="inline" fill="none" stroke="#353536" stroke-width="0.5" stroke-miterlimit="10" x1="118.15" y1="527.817" x2="495.359" y2="527.817"/>
		
			<line display="inline" fill="none" stroke="#353536" stroke-width="0.5" stroke-miterlimit="10" x1="118.15" y1="526.445" x2="495.359" y2="526.445"/>
		
			<line display="inline" fill="none" stroke="#353536" stroke-width="0.5" stroke-miterlimit="10" x1="118.15" y1="525.211" x2="495.359" y2="525.211"/>
		
			<line display="inline" fill="none" stroke="#353536" stroke-width="0.5" stroke-miterlimit="10" x1="118.15" y1="523.839" x2="495.359" y2="523.839"/>
		
			<line display="inline" fill="none" stroke="#353536" stroke-width="0.5" stroke-miterlimit="10" x1="118.15" y1="522.468" x2="495.359" y2="522.468"/>
		
			<line display="inline" fill="none" stroke="#353536" stroke-width="0.5" stroke-miterlimit="10" x1="118.15" y1="521.233" x2="495.359" y2="521.233"/>
		
			<line display="inline" fill="none" stroke="#353536" stroke-width="0.5" stroke-miterlimit="10" x1="118.15" y1="519.861" x2="495.359" y2="519.861"/>
		
			<line display="inline" fill="none" stroke="#353536" stroke-width="0.5" stroke-miterlimit="10" x1="118.15" y1="518.49" x2="495.359" y2="518.49"/>
		
			<line display="inline" fill="none" stroke="#353536" stroke-width="0.5" stroke-miterlimit="10" x1="118.15" y1="517.255" x2="495.359" y2="517.255"/>
		
			<line display="inline" fill="none" stroke="#353536" stroke-width="0.5" stroke-miterlimit="10" x1="118.15" y1="515.884" x2="495.359" y2="515.884"/>
		
			<line display="inline" fill="none" stroke="#353536" stroke-width="0.5" stroke-miterlimit="10" x1="118.15" y1="514.649" x2="495.359" y2="514.649"/>
		
			<line display="inline" fill="none" stroke="#353536" stroke-width="0.5" stroke-miterlimit="10" x1="118.15" y1="513.277" x2="495.359" y2="513.277"/>
		
			<line display="inline" fill="none" stroke="#353536" stroke-width="0.5" stroke-miterlimit="10" x1="118.15" y1="511.906" x2="495.359" y2="511.906"/>
		
			<line display="inline" fill="none" stroke="#353536" stroke-width="0.5" stroke-miterlimit="10" x1="118.15" y1="510.671" x2="495.359" y2="510.671"/>
		
			<line display="inline" fill="none" stroke="#353536" stroke-width="0.5" stroke-miterlimit="10" x1="118.15" y1="509.3" x2="495.359" y2="509.3"/>
		
			<line display="inline" fill="none" stroke="#353536" stroke-width="0.5" stroke-miterlimit="10" x1="118.15" y1="508.065" x2="495.359" y2="508.065"/>
		
			<line display="inline" fill="none" stroke="#353536" stroke-width="0.5" stroke-miterlimit="10" x1="118.15" y1="506.693" x2="495.359" y2="506.693"/>
		
			<line display="inline" fill="none" stroke="#353536" stroke-width="0.5" stroke-miterlimit="10" x1="118.15" y1="505.322" x2="495.359" y2="505.322"/>
		
			<line display="inline" fill="none" stroke="#353536" stroke-width="0.5" stroke-miterlimit="10" x1="118.15" y1="504.087" x2="495.359" y2="504.087"/>
		
			<line display="inline" fill="none" stroke="#353536" stroke-width="0.5" stroke-miterlimit="10" x1="118.15" y1="502.716" x2="495.359" y2="502.716"/>
		
			<line display="inline" fill="none" stroke="#353536" stroke-width="0.5" stroke-miterlimit="10" x1="118.15" y1="501.481" x2="495.359" y2="501.481"/>
		
			<line display="inline" fill="none" stroke="#353536" stroke-width="0.5" stroke-miterlimit="10" x1="118.15" y1="500.109" x2="495.359" y2="500.109"/>
		
			<line display="inline" fill="none" stroke="#353536" stroke-width="0.5" stroke-miterlimit="10" x1="118.15" y1="498.738" x2="495.359" y2="498.738"/>
		
			<line display="inline" fill="none" stroke="#353536" stroke-width="0.5" stroke-miterlimit="10" x1="118.15" y1="497.503" x2="495.359" y2="497.503"/>
		
			<line display="inline" fill="none" stroke="#353536" stroke-width="0.5" stroke-miterlimit="10" x1="118.15" y1="496.132" x2="495.359" y2="496.132"/>
		
			<line display="inline" fill="none" stroke="#353536" stroke-width="0.5" stroke-miterlimit="10" x1="118.15" y1="494.897" x2="495.359" y2="494.897"/>
		
			<line display="inline" fill="none" stroke="#353536" stroke-width="0.5" stroke-miterlimit="10" x1="118.15" y1="493.525" x2="495.359" y2="493.525"/>
		
			<line display="inline" fill="none" stroke="#353536" stroke-width="0.5" stroke-miterlimit="10" x1="118.15" y1="492.154" x2="495.359" y2="492.154"/>
		
			<line display="inline" fill="none" stroke="#353536" stroke-width="0.5" stroke-miterlimit="10" x1="118.15" y1="490.919" x2="495.359" y2="490.919"/>
		
			<line display="inline" fill="none" stroke="#353536" stroke-width="0.5" stroke-miterlimit="10" x1="118.15" y1="489.548" x2="495.359" y2="489.548"/>
		
			<line display="inline" fill="none" stroke="#353536" stroke-width="0.5" stroke-miterlimit="10" x1="118.15" y1="488.313" x2="495.359" y2="488.313"/>
		
			<line display="inline" fill="none" stroke="#353536" stroke-width="0.5" stroke-miterlimit="10" x1="118.15" y1="486.941" x2="495.359" y2="486.941"/>
		
			<line display="inline" fill="none" stroke="#353536" stroke-width="0.5" stroke-miterlimit="10" x1="118.15" y1="485.57" x2="495.359" y2="485.57"/>
		
			<line display="inline" fill="none" stroke="#353536" stroke-width="0.5" stroke-miterlimit="10" x1="118.15" y1="484.335" x2="495.359" y2="484.335"/>
		
			<line display="inline" fill="none" stroke="#353536" stroke-width="0.5" stroke-miterlimit="10" x1="118.15" y1="482.964" x2="495.359" y2="482.964"/>
		
			<line display="inline" fill="none" stroke="#353536" stroke-width="0.5" stroke-miterlimit="10" x1="118.15" y1="481.729" x2="495.359" y2="481.729"/>
		
			<line display="inline" fill="none" stroke="#353536" stroke-width="0.5" stroke-miterlimit="10" x1="118.15" y1="480.357" x2="495.359" y2="480.357"/>
		
			<line display="inline" fill="none" stroke="#353536" stroke-width="0.5" stroke-miterlimit="10" x1="118.15" y1="478.986" x2="495.359" y2="478.986"/>
		
			<line display="inline" fill="none" stroke="#353536" stroke-width="0.5" stroke-miterlimit="10" x1="118.15" y1="477.751" x2="495.359" y2="477.751"/>
		
			<line display="inline" fill="none" stroke="#353536" stroke-width="0.5" stroke-miterlimit="10" x1="118.15" y1="476.38" x2="495.359" y2="476.38"/>
		
			<line display="inline" fill="none" stroke="#353536" stroke-width="0.5" stroke-miterlimit="10" x1="118.15" y1="475.145" x2="495.359" y2="475.145"/>
		
			<line display="inline" fill="none" stroke="#353536" stroke-width="0.5" stroke-miterlimit="10" x1="118.15" y1="473.773" x2="495.359" y2="473.773"/>
		
			<line display="inline" fill="none" stroke="#353536" stroke-width="0.5" stroke-miterlimit="10" x1="118.15" y1="472.402" x2="495.359" y2="472.402"/>
		
			<line display="inline" fill="none" stroke="#353536" stroke-width="0.5" stroke-miterlimit="10" x1="118.15" y1="471.167" x2="495.359" y2="471.167"/>
		
			<line display="inline" fill="none" stroke="#353536" stroke-width="0.5" stroke-miterlimit="10" x1="118.15" y1="469.796" x2="495.359" y2="469.796"/>
		
			<line display="inline" fill="none" stroke="#353536" stroke-width="0.5" stroke-miterlimit="10" x1="118.15" y1="468.561" x2="495.359" y2="468.561"/>
		
			<line display="inline" fill="none" stroke="#353536" stroke-width="0.5" stroke-miterlimit="10" x1="118.15" y1="467.189" x2="495.359" y2="467.189"/>
		
			<line display="inline" fill="none" stroke="#353536" stroke-width="0.5" stroke-miterlimit="10" x1="118.15" y1="465.818" x2="495.359" y2="465.818"/>
		
			<line display="inline" fill="none" stroke="#353536" stroke-width="0.5" stroke-miterlimit="10" x1="118.15" y1="464.583" x2="495.359" y2="464.583"/>
		
			<line display="inline" fill="none" stroke="#353536" stroke-width="0.5" stroke-miterlimit="10" x1="118.15" y1="463.212" x2="495.359" y2="463.212"/>
		
			<line display="inline" fill="none" stroke="#353536" stroke-width="0.5" stroke-miterlimit="10" x1="118.15" y1="461.977" x2="495.359" y2="461.977"/>
		
			<line display="inline" fill="none" stroke="#353536" stroke-width="0.5" stroke-miterlimit="10" x1="118.15" y1="460.605" x2="495.359" y2="460.605"/>
		
			<line display="inline" fill="none" stroke="#353536" stroke-width="0.5" stroke-miterlimit="10" x1="118.15" y1="459.234" x2="495.359" y2="459.234"/>
		
			<line display="inline" fill="none" stroke="#353536" stroke-width="0.5" stroke-miterlimit="10" x1="118.15" y1="457.999" x2="495.359" y2="457.999"/>
		
			<line display="inline" fill="none" stroke="#353536" stroke-width="0.5" stroke-miterlimit="10" x1="118.15" y1="456.628" x2="495.359" y2="456.628"/>
		
			<line display="inline" fill="none" stroke="#353536" stroke-width="0.5" stroke-miterlimit="10" x1="118.15" y1="455.393" x2="495.359" y2="455.393"/>
	</g>
	<polygon fill="#5163C7" points="467.239,663.886 141.743,532.206 149.973,507.516 476.841,640.568 	"/>
	<polygon fill="#5163C7" points="544.739,581.038 201.41,633.161 197.295,605.728 541.995,556.348 	"/>
	<polygon fill="#5163C7" points="570.8,618.073 224.729,659.223 221.985,630.418 568.057,592.011 	"/>
	<polygon fill="#343535" points="570.8,618.073 396.187,638.648 394.815,611.214 568.057,592.011 	"/>
	<polygon fill="#343535" points="373.28,608.471 200.039,634.533 197.295,605.728 370.537,581.038 	"/>
	<polygon fill="#343535" points="304.697,600.241 139.686,531.658 149.287,506.968 317.042,575.551 	"/>
</g>
<g id="Layer_2" display="none">
	
		<image display="inline" overflow="visible" enable-background="new    " width="580" height="770" xlink:href="3882E49B7716D31B.png"  transform="matrix(1.0286 0 0 1.0286 7.7312 0)">
	</image>
</g>
</svg>
